# xmcd
#
# Track frame offsets: 
#        150
#        13478
#        25555
#        37064
#        49070
#        65016
#        74942
#        89732
#        104890
#        119409
#        130312
#        149265
#        163839
#        179153
#        192579
#        205177
#        217976
#        230930
#        248726
#        261101
#        275583
#        288910
#        306163
#        315040
#
# Disc length: 4324 seconds
#
# Revision: 0
# Processed by: cddbd v1.5.2PL0 Copyright (c) Steve Scherf et al.
# Submitted via: ExactAudioCopy v1.0b1
#
DISCID=8a10e218
DTITLE=Various Artist - King of the Road (Hallo, guten Morgen Deutschland)
DYEAR=2010
DGENRE=Country
TTITLE0=Freddy Quinn - It's Country Time
TTITLE1=Tom Astor - Hallo guten Morgen Deutschland
TTITLE2=John Brooker - Ring of Fire
TTITLE3=Dolly Parton - Jolene
TTITLE4=Truck Stop - Ich möcht so gern Dave Dudley hörn
TTITLE5=Ralf Paulsen - Bonanza
TTITLE6=Bellamy Brothers - Let Your Love Flow
TTITLE7=Bobby Bare - For The Good Times
TTITLE8=Linda Feller - Appartment 94
TTITLE9=Peter Held - Die Wahrheit über Tom Dooley
TTITLE10=John Denver - Rocky Mountain High
TTITLE11=Bobby Perkins - Summertime Blues
TTITLE12=Gunter Gabriel - Truck Stop, Tom Astor und ich
TTITLE13=Truck Stop - Take it easy, altes Haus
TTITLE14=Gene Martin - San Antonio Rose
TTITLE15=Billie Jo Spears - What I've Got In My Mind
TTITLE16=Mike Herrman and Booze Company - Verliebt in Country
TTITLE17=Gunter Gabriel - Komm unter meine Decke
TTITLE18=Johnny Cash - I Walk The Line
TTITLE19=The Bluegrass Yankees - Thank God I'm A Country Boy
TTITLE20=Tom Astor - Hungrige Herzen
TTITLE21=Johnny Hill - (Ghost) Riders In The Sky
TTITLE22=Roger Miller - Billy Bayou
TTITLE23=Pam Gadd - Cotton Eyed Joe
EXTD=
EXTT0=
EXTT1=
EXTT2=
EXTT3=
EXTT4=
EXTT5=
EXTT6=
EXTT7=
EXTT8=
EXTT9=
EXTT10=
EXTT11=
EXTT12=
EXTT13=
EXTT14=
EXTT15=
EXTT16=
EXTT17=
EXTT18=
EXTT19=
EXTT20=
EXTT21=
EXTT22=
EXTT23=
PLAYORDER=
